<svg xmlns="http://www.w3.org/2000/svg" width="24" height="22" viewBox="0 0 24 22">
  <metadata><?xpacket begin="﻿" id="W5M0MpCehiHzreSzNTczkc9d"?>
<x:xmpmeta xmlns:x="adobe:ns:meta/" x:xmptk="Adobe XMP Core 5.6-c142 79.160924, 2017/07/13-01:06:39        ">
   <rdf:RDF xmlns:rdf="http://www.w3.org/1999/02/22-rdf-syntax-ns#">
      <rdf:Description rdf:about=""/>
   </rdf:RDF>
</x:xmpmeta>
<?xpacket end="w"?></metadata>
<defs>
    <style>
      .cls-1 {
        fill: #e6e6e6;
        fill-rule: evenodd;
      }
    </style>
  </defs>
  <path class="cls-1" d="M1236.5,50.8l-4.82,3.8a0.915,0.915,0,0,0-.33.947l1.46,5.745a1.378,1.378,0,0,1-2.09,1.482l-5.28-3.126a1,1,0,0,0-1.02,0l-5.21,3.126a1.378,1.378,0,0,1-2.09-1.482l1.46-5.75a0.92,0.92,0,0,0-.32-0.943l-4.76-3.794a1.369,1.369,0,0,1,.83-2.42l6.16-.431a0.968,0.968,0,0,0,.83-0.578l2.36-5.523A1.4,1.4,0,0,1,1225,41a1.425,1.425,0,0,1,1.33.857l2.35,5.518a0.975,0.975,0,0,0,.82.578l6.17,0.431A1.366,1.366,0,0,1,1236.5,50.8Z" transform="translate(-1213 -41)"/>
</svg>
